<svg width="1024" height="1024" viewBox="0 0 1024 1024" fill="none" xmlns="http://www.w3.org/2000/svg">
<path d="M128 377H878V695H128V377Z" fill="white"/>
<path fill-rule="evenodd" clip-rule="evenodd" d="M904.273 1022.4C937.851 1030.75 970.344 1005.35 970.344 970.746V53.281C970.344 15.5214 932.12 -10.2317 897.125 3.95036L86.2359 332.57C66.1458 340.712 53 360.223 53 381.9V769.127C53 793.577 69.6567 814.882 93.3841 820.782L904.273 1022.4ZM714.29 615.192C773.026 615.192 820.641 567.577 820.641 508.841C820.641 450.104 773.026 402.489 714.29 402.489C655.554 402.489 607.939 450.104 607.939 508.841C607.939 567.577 655.554 615.192 714.29 615.192ZM506.474 609.89C548.904 609.89 583.301 575.493 583.301 533.063C583.301 490.633 548.904 456.237 506.474 456.237C464.044 456.237 429.647 490.633 429.647 533.063C429.647 575.493 464.044 609.89 506.474 609.89ZM346.895 613.216C380.311 613.216 407.4 586.128 407.4 552.712C407.4 519.296 380.311 492.207 346.895 492.207C313.479 492.207 286.39 519.296 286.39 552.712C286.39 586.128 313.479 613.216 346.895 613.216ZM264.143 569.345C264.143 597.881 241.01 621.013 212.475 621.013C183.939 621.013 160.807 597.881 160.807 569.345C160.807 540.81 183.939 517.677 212.475 517.677C241.01 517.677 264.143 540.81 264.143 569.345Z" fill="url(#paint0_linear_11_10)"/>
<defs>
<linearGradient id="paint0_linear_11_10" x1="53" y1="512" x2="970.344" y2="512" gradientUnits="userSpaceOnUse">
<stop stop-color="#00A7FF"/>
<stop offset="1" stop-color="#0080FF"/>
</linearGradient>
</defs>
</svg>
